<?xml version="1.0" encoding="UTF-8" standalone="no"?>
<svg width="166px" height="50px" viewBox="0 0 166 50" version="1.1" xmlns="http://www.w3.org/2000/svg" xmlns:xlink="http://www.w3.org/1999/xlink" xmlns:sketch="http://www.bohemiancoding.com/sketch/ns">
    <!-- Generator: Sketch 3.0.4 (8053) - http://www.bohemiancoding.com/sketch -->
    <title>tinyissue</title>
    <desc>Created with Sketch.</desc>
    <defs></defs>
    <g id="pxln-bugs-logo" stroke="none" stroke-width="1" fill="none" fill-rule="evenodd" sketch:type="MSPage">
        <g id="tinyissue" sketch:type="MSArtboardGroup">
            <g id="icon_64214" sketch:type="MSLayerGroup" transform="translate(36.000000, 25.698485) rotate(-315.000000) translate(-36.000000, -25.698485) translate(5.500000, -4.801515)">
                <g id="Group" transform="translate(0.000000, 0.000000)"></g>
                <path d="M38.3764563,4 L26.1371415,4 C23.9163428,4 22.108444,5.76420892 22.108444,7.93270289 L22.108444,20.3627762 C22.108444,22.5312702 23.9163428,24.2960944 26.1371415,24.2960944 L30.9479491,24.2960944 L30.9479491,44.5934196 C29.3455773,45.1404659 28.188719,46.6560733 28.188719,48.4405888 L28.188719,52.8532648 C28.188719,55.0962162 30.0144629,56.9207294 32.2567989,56.9207294 C34.4991349,56.9207294 36.3236481,55.0962162 36.3236481,52.8532648 L36.3236481,48.4405888 C36.3236481,46.6560733 35.1674052,45.1404659 33.5656487,44.5940349 L33.5656487,24.2954791 L38.3764563,24.2954791 C40.597255,24.2954791 42.4051538,22.5306548 42.4051538,20.3621608 L42.4051538,7.93208754 C42.4051538,5.76420892 40.5978704,4 38.3764563,4 L38.3764563,4 Z M33.7053332,52.8526495 C33.7053332,53.651374 33.0549081,54.3011838 32.2567989,54.3011838 C31.4574591,54.3011838 30.8082646,53.6507586 30.8082646,52.8526495 L30.8082646,48.4399734 C30.8082646,47.6412489 31.4574591,46.9914392 32.2567989,46.9914392 C33.0549081,46.9914392 33.7053332,47.6412489 33.7053332,48.4399734 L33.7053332,52.8526495 L33.7053332,52.8526495 Z M39.7849928,12.8844257 L37.6491124,12.8844257 L37.6491124,10.5768625 L39.7849928,10.5768625 L39.7849928,12.8844257 L39.7849928,12.8844257 Z M35.5919968,12.8844257 L33.2856644,12.8844257 L33.2856644,10.5768625 L35.5919968,10.5768625 L35.5919968,12.8844257 L35.5919968,12.8844257 Z M33.2856644,8.51974695 L33.2856644,6.61831495 L35.5919968,6.61831495 L35.5919968,8.51974695 L33.2856644,8.51974695 L33.2856644,8.51974695 Z M31.2279334,8.51974695 L28.9203703,8.51974695 L28.9203703,6.61831495 L31.2279334,6.61831495 L31.2279334,8.51974695 L31.2279334,8.51974695 Z M31.2279334,10.5768625 L31.2279334,12.8844257 L28.9203703,12.8844257 L28.9203703,10.5768625 L31.2279334,10.5768625 L31.2279334,10.5768625 Z M26.8638701,12.8844257 L24.726759,12.8844257 L24.726759,10.5768625 L26.8638701,10.5768625 L26.8638701,12.8844257 L26.8638701,12.8844257 Z M24.7273743,14.9415413 L26.8644854,14.9415413 L26.8644854,17.2491044 L24.7273743,17.2491044 L24.7273743,14.9415413 L24.7273743,14.9415413 Z M28.9203703,14.9415413 L31.2279334,14.9415413 L31.2279334,17.2491044 L28.9203703,17.2491044 L28.9203703,14.9415413 L28.9203703,14.9415413 Z M31.2279334,19.3068353 L31.2279334,21.6771641 L28.9203703,21.6771641 L28.9203703,19.3068353 L31.2279334,19.3068353 L31.2279334,19.3068353 Z M33.2856644,19.3068353 L35.5919968,19.3068353 L35.5919968,21.6771641 L33.2856644,21.6771641 L33.2856644,19.3068353 L33.2856644,19.3068353 Z M33.2856644,17.2491044 L33.2856644,14.9415413 L35.5919968,14.9415413 L35.5919968,17.2491044 L33.2856644,17.2491044 L33.2856644,17.2491044 Z M37.6497277,14.9415413 L39.7856082,14.9415413 L39.7856082,17.2491044 L37.6497277,17.2491044 L37.6497277,14.9415413 L37.6497277,14.9415413 Z M39.7849928,7.93270289 L39.7849928,8.51974695 L37.6491124,8.51974695 L37.6491124,6.61831495 L38.3764563,6.61831495 C39.1542589,6.61831495 39.7849928,7.2078204 39.7849928,7.93270289 L39.7849928,7.93270289 Z M26.1371415,6.61831495 L26.8644854,6.61831495 L26.8644854,8.51974695 L24.7273743,8.51974695 L24.7273743,7.93270289 C24.7273743,7.2078204 25.3593389,6.61831495 26.1371415,6.61831495 L26.1371415,6.61831495 Z M24.7273743,20.3627762 L24.7273743,19.3068353 L26.8644854,19.3068353 L26.8644854,21.6771641 L26.1371415,21.6771641 C25.3593389,21.6771641 24.7273743,21.0876587 24.7273743,20.3627762 L24.7273743,20.3627762 Z M38.3764563,21.6771641 L37.6491124,21.6771641 L37.6491124,19.3068353 L39.7849928,19.3068353 L39.7849928,20.3627762 C39.7849928,21.0876587 39.1542589,21.6771641 38.3764563,21.6771641 L38.3764563,21.6771641 Z" id="Shape" fill="#FFFFFF" sketch:type="MSShapeGroup"></path>
            </g>
            <g id="icon_64214-2" sketch:type="MSLayerGroup" transform="translate(27.000000, 25.698485) scale(-1, 1) rotate(-315.000000) translate(-27.000000, -25.698485) translate(-3.500000, -4.801515)">
                <g id="Group" transform="translate(0.000000, 0.000000)"></g>
                <path d="M38.3764563,4 L26.1371415,4 C23.9163428,4 22.108444,5.76420892 22.108444,7.93270289 L22.108444,20.3627762 C22.108444,22.5312702 23.9163428,24.2960944 26.1371415,24.2960944 L30.9479491,24.2960944 L30.9479491,44.5934196 C29.3455773,45.1404659 28.188719,46.6560733 28.188719,48.4405888 L28.188719,52.8532648 C28.188719,55.0962162 30.0144629,56.9207294 32.2567989,56.9207294 C34.4991349,56.9207294 36.3236481,55.0962162 36.3236481,52.8532648 L36.3236481,48.4405888 C36.3236481,46.6560733 35.1674052,45.1404659 33.5656487,44.5940349 L33.5656487,24.2954791 L38.3764563,24.2954791 C40.597255,24.2954791 42.4051538,22.5306548 42.4051538,20.3621608 L42.4051538,7.93208754 C42.4051538,5.76420892 40.5978704,4 38.3764563,4 L38.3764563,4 Z M33.7053332,52.8526495 C33.7053332,53.651374 33.0549081,54.3011838 32.2567989,54.3011838 C31.4574591,54.3011838 30.8082646,53.6507586 30.8082646,52.8526495 L30.8082646,48.4399734 C30.8082646,47.6412489 31.4574591,46.9914392 32.2567989,46.9914392 C33.0549081,46.9914392 33.7053332,47.6412489 33.7053332,48.4399734 L33.7053332,52.8526495 L33.7053332,52.8526495 Z M39.7849928,12.8844257 L37.6491124,12.8844257 L37.6491124,10.5768625 L39.7849928,10.5768625 L39.7849928,12.8844257 L39.7849928,12.8844257 Z M35.5919968,12.8844257 L33.2856644,12.8844257 L33.2856644,10.5768625 L35.5919968,10.5768625 L35.5919968,12.8844257 L35.5919968,12.8844257 Z M33.2856644,8.51974695 L33.2856644,6.61831495 L35.5919968,6.61831495 L35.5919968,8.51974695 L33.2856644,8.51974695 L33.2856644,8.51974695 Z M31.2279334,8.51974695 L28.9203703,8.51974695 L28.9203703,6.61831495 L31.2279334,6.61831495 L31.2279334,8.51974695 L31.2279334,8.51974695 Z M31.2279334,10.5768625 L31.2279334,12.8844257 L28.9203703,12.8844257 L28.9203703,10.5768625 L31.2279334,10.5768625 L31.2279334,10.5768625 Z M26.8638701,12.8844257 L24.726759,12.8844257 L24.726759,10.5768625 L26.8638701,10.5768625 L26.8638701,12.8844257 L26.8638701,12.8844257 Z M24.7273743,14.9415413 L26.8644854,14.9415413 L26.8644854,17.2491044 L24.7273743,17.2491044 L24.7273743,14.9415413 L24.7273743,14.9415413 Z M28.9203703,14.9415413 L31.2279334,14.9415413 L31.2279334,17.2491044 L28.9203703,17.2491044 L28.9203703,14.9415413 L28.9203703,14.9415413 Z M31.2279334,19.3068353 L31.2279334,21.6771641 L28.9203703,21.6771641 L28.9203703,19.3068353 L31.2279334,19.3068353 L31.2279334,19.3068353 Z M33.2856644,19.3068353 L35.5919968,19.3068353 L35.5919968,21.6771641 L33.2856644,21.6771641 L33.2856644,19.3068353 L33.2856644,19.3068353 Z M33.2856644,17.2491044 L33.2856644,14.9415413 L35.5919968,14.9415413 L35.5919968,17.2491044 L33.2856644,17.2491044 L33.2856644,17.2491044 Z M37.6497277,14.9415413 L39.7856082,14.9415413 L39.7856082,17.2491044 L37.6497277,17.2491044 L37.6497277,14.9415413 L37.6497277,14.9415413 Z M39.7849928,7.93270289 L39.7849928,8.51974695 L37.6491124,8.51974695 L37.6491124,6.61831495 L38.3764563,6.61831495 C39.1542589,6.61831495 39.7849928,7.2078204 39.7849928,7.93270289 L39.7849928,7.93270289 Z M26.1371415,6.61831495 L26.8644854,6.61831495 L26.8644854,8.51974695 L24.7273743,8.51974695 L24.7273743,7.93270289 C24.7273743,7.2078204 25.3593389,6.61831495 26.1371415,6.61831495 L26.1371415,6.61831495 Z M24.7273743,20.3627762 L24.7273743,19.3068353 L26.8644854,19.3068353 L26.8644854,21.6771641 L26.1371415,21.6771641 C25.3593389,21.6771641 24.7273743,21.0876587 24.7273743,20.3627762 L24.7273743,20.3627762 Z M38.3764563,21.6771641 L37.6491124,21.6771641 L37.6491124,19.3068353 L39.7849928,19.3068353 L39.7849928,20.3627762 C39.7849928,21.0876587 39.1542589,21.6771641 38.3764563,21.6771641 L38.3764563,21.6771641 Z" id="Shape" fill="#FFFFFF" sketch:type="MSShapeGroup"></path>
            </g>
            <text id="BUGS?" sketch:type="MSTextLayer" font-family="Avenir Next" font-size="12" font-weight="420" fill="#FFFFFF">
                <tspan x="66" y="28">BUGS?</tspan>
                <tspan x="66" y="44">NO’ MORE !</tspan>
            </text>
        </g>
    </g>
</svg>